<!-- Generator: Adobe Illustrator 19.0.0, SVG Export Plug-In  -->
<svg version="1.1"
	 xmlns="http://www.w3.org/2000/svg" xmlns:xlink="http://www.w3.org/1999/xlink" xmlns:a="http://ns.adobe.com/AdobeSVGViewerExtensions/3.0/"
	 x="0px" y="0px" width="28.906px" height="39.959px" viewBox="0 0 28.906 39.959"
	 style="enable-background:new 0 0 28.906 39.959;" xml:space="preserve">
<style type="text/css">
	.st0{fill:#ACC3C7;}
</style>
<defs>
</defs>
<g>
	<path class="st0" d="M25.08,15.166h-0.605c-0.133-4.457-1.104-8.066-2.729-10.678c-0.875-1.412-1.951-2.525-3.193-3.301
		C17.316,0.414,15.904,0,14.449,0c-1.447,0-2.853,0.414-4.096,1.188c-1.867,1.168-3.35,3.1-4.361,5.625
		c-0.93,2.293-1.471,5.084-1.572,8.354h-0.6c-2.106,0-3.82,1.709-3.82,3.82v17.141c0,2.113,1.715,3.832,3.82,3.832h21.26
		c2.117,0,3.826-1.719,3.826-3.832V18.986C28.906,16.875,27.197,15.166,25.08,15.166z M16.201,28.422v6.336h-3.502v-6.336
		c-1.688-0.689-2.887-2.355-2.887-4.299c0-2.557,2.08-4.637,4.637-4.637c2.565,0,4.639,2.08,4.639,4.637
		C19.088,26.066,17.9,27.732,16.201,28.422z M7.121,15.166c0.133-4.064,1.029-7.195,2.32-9.256c0.695-1.113,1.496-1.92,2.334-2.44
		c0.844-0.522,1.725-0.775,2.674-0.775c0.957,0,1.838,0.254,2.682,0.775c1.258,0.785,2.43,2.207,3.289,4.352
		c0.769,1.91,1.269,4.371,1.369,7.344H7.121z"/>
</g>
</svg>