<!-- Generator: Adobe Illustrator 19.0.0, SVG Export Plug-In  -->
<svg version="1.1"
	 xmlns="http://www.w3.org/2000/svg" xmlns:xlink="http://www.w3.org/1999/xlink" xmlns:a="http://ns.adobe.com/AdobeSVGViewerExtensions/3.0/"
	 x="0px" y="0px" width="36.016px" height="37.732px" viewBox="0 0 36.016 37.732"
	 style="enable-background:new 0 0 36.016 37.732;" xml:space="preserve">
<style type="text/css">
	.st0{fill:#ACC3C7;}
</style>
<defs>
</defs>
<g>
	<path class="st0" d="M18,19.434c5.371,0,9.727-4.34,9.727-9.721C27.727,4.352,23.371,0,18,0c-5.365,0-9.711,4.352-9.711,9.713
		C8.289,15.094,12.635,19.434,18,19.434z M27.705,18.287c-2.377,2.686-5.842,4.385-9.705,4.385c-3.857,0-7.318-1.699-9.689-4.385
		C3.311,21.482,0,27.076,0,33.443c0,1.477,0.195,2.908,0.529,4.289h34.945c0.34-1.381,0.541-2.812,0.541-4.289
		C36.016,27.076,32.693,21.482,27.705,18.287z"/>
</g>
</svg>