<!-- Generator: Adobe Illustrator 19.0.0, SVG Export Plug-In  -->
<svg version="1.1"
	 xmlns="http://www.w3.org/2000/svg" xmlns:xlink="http://www.w3.org/1999/xlink" xmlns:a="http://ns.adobe.com/AdobeSVGViewerExtensions/3.0/"
	 x="0px" y="0px" width="537.826px" height="404.539px" viewBox="0 0 537.826 404.539"
	 style="enable-background:new 0 0 537.826 404.539;" xml:space="preserve">
<style type="text/css">
	.st0{fill:#FFFFFF;}
	.st1{font-family:'Montserrat-Medium';}
	.st2{font-size:17.8697px;}
	.st3{font-family:'Montserrat-ExtraLight';}
	.st4{font-size:21.1534px;}
</style>
<defs>
</defs>
<g>
	<g>
		<path class="st0" d="M10.579,4.503c0.929,0.775,1.394,1.841,1.394,3.199s-0.465,2.424-1.394,3.198
			c-0.93,0.774-2.204,1.162-3.824,1.162H3.663v3.788H1.876V3.342h4.879C8.375,3.342,9.649,3.729,10.579,4.503z M9.292,9.784
			c0.596-0.482,0.894-1.177,0.894-2.082s-0.298-1.6-0.894-2.082S7.833,4.896,6.701,4.896H3.663v5.611h3.038
			C7.833,10.508,8.696,10.267,9.292,9.784z"/>
		<path class="st0" d="M17.012,15.163c-1.013-0.555-1.809-1.319-2.386-2.297c-0.578-0.977-0.867-2.066-0.867-3.271
			c0-1.203,0.289-2.293,0.867-3.27c0.577-0.977,1.373-1.742,2.386-2.297c1.012-0.554,2.15-0.83,3.413-0.83
			c1.251,0,2.382,0.276,3.395,0.83c1.013,0.555,1.806,1.317,2.377,2.288c0.572,0.971,0.857,2.063,0.857,3.278
			c0,1.216-0.285,2.309-0.857,3.279c-0.571,0.972-1.364,1.733-2.377,2.288c-1.013,0.554-2.144,0.83-3.395,0.83
			C19.162,15.993,18.023,15.717,17.012,15.163z M22.899,13.777c0.732-0.417,1.311-0.991,1.733-1.724
			c0.423-0.733,0.635-1.552,0.635-2.458c0-0.904-0.212-1.724-0.635-2.457c-0.423-0.732-1.001-1.307-1.733-1.724
			s-1.558-0.626-2.475-0.626c-0.918,0-1.749,0.209-2.493,0.626s-1.328,0.991-1.751,1.724c-0.423,0.733-0.635,1.553-0.635,2.457
			c0,0.906,0.212,1.725,0.635,2.458c0.423,0.732,1.007,1.307,1.751,1.724c0.744,0.418,1.575,0.626,2.493,0.626
			C21.342,14.403,22.167,14.195,22.899,13.777z"/>
		<path class="st0" d="M30.709,15.556c-0.876-0.292-1.563-0.67-2.064-1.135l0.661-1.394c0.477,0.429,1.087,0.777,1.832,1.045
			c0.744,0.269,1.51,0.402,2.296,0.402c1.037,0,1.811-0.176,2.323-0.527c0.512-0.351,0.769-0.818,0.769-1.402
			c0-0.429-0.141-0.777-0.42-1.046c-0.28-0.268-0.626-0.474-1.036-0.616c-0.411-0.143-0.992-0.304-1.743-0.482
			c-0.94-0.227-1.7-0.453-2.278-0.679c-0.577-0.227-1.072-0.575-1.482-1.046c-0.411-0.471-0.617-1.104-0.617-1.903
			c0-0.667,0.176-1.269,0.527-1.805s0.885-0.965,1.6-1.286c0.715-0.322,1.602-0.482,2.662-0.482c0.739,0,1.466,0.095,2.181,0.285
			c0.715,0.191,1.328,0.465,1.841,0.822l-0.59,1.43c-0.524-0.333-1.085-0.587-1.68-0.76c-0.597-0.172-1.18-0.259-1.752-0.259
			c-1.013,0-1.771,0.185-2.278,0.554C30.953,5.641,30.7,6.118,30.7,6.701c0,0.429,0.143,0.777,0.429,1.046
			c0.286,0.268,0.64,0.477,1.063,0.625c0.422,0.149,0.997,0.307,1.724,0.474c0.941,0.227,1.698,0.453,2.27,0.679
			c0.572,0.227,1.063,0.572,1.475,1.037c0.411,0.464,0.616,1.09,0.616,1.876c0,0.655-0.179,1.254-0.536,1.796
			s-0.899,0.971-1.626,1.286c-0.727,0.316-1.62,0.474-2.681,0.474C32.492,15.993,31.584,15.848,30.709,15.556z"/>
		<path class="st0" d="M40.885,3.342h1.787v12.509h-1.787V3.342z"/>
		<path class="st0" d="M48.632,15.163c-1.007-0.555-1.796-1.316-2.367-2.288c-0.572-0.971-0.858-2.063-0.858-3.279
			c0-1.215,0.286-2.308,0.858-3.278c0.571-0.971,1.363-1.733,2.376-2.288c1.013-0.554,2.145-0.83,3.396-0.83
			c0.977,0,1.87,0.163,2.681,0.491c0.81,0.327,1.501,0.812,2.073,1.456l-1.162,1.126c-0.941-0.988-2.114-1.483-3.521-1.483
			c-0.929,0-1.769,0.209-2.52,0.626c-0.75,0.417-1.337,0.991-1.76,1.724c-0.423,0.733-0.635,1.553-0.635,2.457
			c0,0.906,0.212,1.725,0.635,2.458c0.423,0.732,1.01,1.307,1.76,1.724c0.751,0.418,1.591,0.626,2.52,0.626
			c1.395,0,2.567-0.501,3.521-1.501l1.162,1.126c-0.572,0.643-1.267,1.132-2.082,1.465c-0.816,0.334-1.713,0.5-2.689,0.5
			C50.768,15.993,49.639,15.717,48.632,15.163z"/>
		<path class="st0" d="M59.344,3.342h1.787v12.509h-1.787V3.342z"/>
		<path class="st0" d="M67.118,15.163c-1.013-0.555-1.809-1.319-2.386-2.297c-0.578-0.977-0.867-2.066-0.867-3.271
			c0-1.203,0.289-2.293,0.867-3.27c0.577-0.977,1.373-1.742,2.386-2.297c1.012-0.554,2.15-0.83,3.413-0.83
			c1.251,0,2.382,0.276,3.395,0.83c1.013,0.555,1.806,1.317,2.377,2.288c0.572,0.971,0.857,2.063,0.857,3.278
			c0,1.216-0.285,2.309-0.857,3.279c-0.571,0.972-1.364,1.733-2.377,2.288c-1.013,0.554-2.144,0.83-3.395,0.83
			C69.269,15.993,68.13,15.717,67.118,15.163z M73.006,13.777c0.732-0.417,1.311-0.991,1.733-1.724
			c0.423-0.733,0.635-1.552,0.635-2.458c0-0.904-0.212-1.724-0.635-2.457c-0.423-0.732-1.001-1.307-1.733-1.724
			s-1.558-0.626-2.475-0.626c-0.918,0-1.749,0.209-2.493,0.626s-1.328,0.991-1.751,1.724c-0.423,0.733-0.635,1.553-0.635,2.457
			c0,0.906,0.212,1.725,0.635,2.458c0.423,0.732,1.007,1.307,1.751,1.724c0.744,0.418,1.575,0.626,2.493,0.626
			C71.448,14.403,72.273,14.195,73.006,13.777z M71.621,0h2.18l-3.002,2.323H69.19L71.621,0z"/>
		<path class="st0" d="M90.652,3.342v12.509h-1.465l-7.506-9.328v9.328h-1.787V3.342h1.466l7.505,9.328V3.342H90.652z"/>
	</g>
</g>
<g>
	<g>
		<path class="st0" d="M191.09,3.342v12.509h-1.465l-7.506-9.328v9.328h-1.787V3.342h1.466l7.505,9.328V3.342H191.09z"/>
		<path class="st0" d="M197.076,15.163c-1.013-0.555-1.809-1.319-2.386-2.297c-0.578-0.977-0.867-2.066-0.867-3.271
			c0-1.203,0.289-2.293,0.867-3.27c0.577-0.977,1.373-1.742,2.386-2.297c1.012-0.554,2.15-0.83,3.413-0.83
			c1.251,0,2.382,0.276,3.395,0.83c1.013,0.555,1.806,1.317,2.377,2.288c0.572,0.971,0.857,2.063,0.857,3.278
			c0,1.216-0.285,2.309-0.857,3.279c-0.571,0.972-1.364,1.733-2.377,2.288c-1.013,0.554-2.144,0.83-3.395,0.83
			C199.227,15.993,198.088,15.717,197.076,15.163z M202.964,13.777c0.732-0.417,1.311-0.991,1.733-1.724
			c0.423-0.733,0.635-1.552,0.635-2.458c0-0.904-0.212-1.724-0.635-2.457c-0.423-0.732-1.001-1.307-1.733-1.724
			s-1.558-0.626-2.475-0.626c-0.918,0-1.749,0.209-2.493,0.626s-1.328,0.991-1.751,1.724c-0.423,0.733-0.635,1.553-0.635,2.457
			c0,0.906,0.212,1.725,0.635,2.458c0.423,0.732,1.007,1.307,1.751,1.724c0.744,0.418,1.575,0.626,2.493,0.626
			C201.406,14.403,202.231,14.195,202.964,13.777z"/>
		<path class="st0" d="M221.45,15.851l-0.018-9.113l-4.521,7.595h-0.821l-4.521-7.541v9.06h-1.716V3.342h1.466l5.218,8.792
			l5.146-8.792h1.466l0.018,12.509H221.45z"/>
		<path class="st0" d="M237.051,10.463c0.417,0.53,0.625,1.2,0.625,2.011c0,1.084-0.408,1.918-1.224,2.501
			c-0.816,0.584-2.005,0.876-3.565,0.876h-5.969V3.342h5.611c1.43,0,2.534,0.286,3.315,0.857c0.779,0.572,1.17,1.364,1.17,2.377
			c0,0.655-0.151,1.222-0.456,1.697c-0.304,0.477-0.712,0.84-1.224,1.091C236.062,9.566,236.634,9.933,237.051,10.463z
			 M228.705,4.789v4.003h3.663c0.918,0,1.623-0.17,2.118-0.509c0.494-0.34,0.741-0.837,0.741-1.492s-0.247-1.153-0.741-1.492
			c-0.495-0.34-1.2-0.51-2.118-0.51H228.705z M235.103,13.902c0.512-0.333,0.769-0.857,0.769-1.572c0-1.394-1.019-2.091-3.056-2.091
			h-4.11v4.164h4.11C233.828,14.403,234.59,14.236,235.103,13.902z"/>
		<path class="st0" d="M248.809,15.851l-2.698-3.842c-0.334,0.023-0.596,0.035-0.786,0.035h-3.092v3.807h-1.787V3.342h4.879
			c1.62,0,2.895,0.388,3.824,1.161c0.929,0.775,1.394,1.841,1.394,3.199c0,0.965-0.238,1.787-0.715,2.466s-1.155,1.174-2.037,1.483
			l2.967,4.199H248.809z M247.861,9.793c0.596-0.488,0.894-1.186,0.894-2.091s-0.298-1.6-0.894-2.082s-1.459-0.724-2.591-0.724
			h-3.038v5.629h3.038C246.402,10.525,247.266,10.281,247.861,9.793z"/>
		<path class="st0" d="M262.515,14.296v1.555h-9.078V3.342h8.828v1.555h-7.041v3.842h6.272v1.52h-6.272v4.038H262.515z"/>
		<path class="st0" d="M272.45,15.163c-1.013-0.555-1.809-1.319-2.386-2.297c-0.578-0.977-0.867-2.066-0.867-3.271
			c0-1.203,0.289-2.293,0.867-3.27c0.577-0.977,1.373-1.742,2.386-2.297c1.012-0.554,2.15-0.83,3.413-0.83
			c1.251,0,2.382,0.276,3.395,0.83c1.013,0.555,1.806,1.317,2.377,2.288c0.572,0.971,0.857,2.063,0.857,3.278
			c0,1.216-0.285,2.309-0.857,3.279c-0.571,0.972-1.364,1.733-2.377,2.288c-1.013,0.554-2.144,0.83-3.395,0.83
			C274.601,15.993,273.462,15.717,272.45,15.163z M278.338,13.777c0.732-0.417,1.311-0.991,1.733-1.724
			c0.423-0.733,0.635-1.552,0.635-2.458c0-0.904-0.212-1.724-0.635-2.457c-0.423-0.732-1.001-1.307-1.733-1.724
			s-1.558-0.626-2.475-0.626c-0.918,0-1.749,0.209-2.493,0.626s-1.328,0.991-1.751,1.724c-0.423,0.733-0.635,1.553-0.635,2.457
			c0,0.906,0.212,1.725,0.635,2.458c0.423,0.732,1.007,1.307,1.751,1.724c0.744,0.418,1.575,0.626,2.493,0.626
			C276.78,14.403,277.605,14.195,278.338,13.777z"/>
		<path class="st0" d="M291.32,14.564c-0.93-0.953-1.394-2.323-1.394-4.11V3.342h1.786v7.041c0,2.68,1.174,4.021,3.521,4.021
			c1.144,0,2.02-0.331,2.627-0.992s0.911-1.671,0.911-3.028V3.342h1.733v7.112c0,1.799-0.464,3.172-1.394,4.119
			c-0.929,0.946-2.228,1.42-3.896,1.42S292.249,15.518,291.32,14.564z"/>
		<path class="st0" d="M305.089,15.556c-0.876-0.292-1.563-0.67-2.064-1.135l0.661-1.394c0.477,0.429,1.087,0.777,1.832,1.045
			c0.744,0.269,1.51,0.402,2.296,0.402c1.037,0,1.811-0.176,2.323-0.527c0.512-0.351,0.769-0.818,0.769-1.402
			c0-0.429-0.141-0.777-0.42-1.046c-0.28-0.268-0.626-0.474-1.036-0.616c-0.411-0.143-0.992-0.304-1.743-0.482
			c-0.94-0.227-1.7-0.453-2.278-0.679c-0.577-0.227-1.072-0.575-1.482-1.046c-0.411-0.471-0.617-1.104-0.617-1.903
			c0-0.667,0.176-1.269,0.527-1.805s0.885-0.965,1.6-1.286c0.715-0.322,1.602-0.482,2.662-0.482c0.739,0,1.466,0.095,2.181,0.285
			c0.715,0.191,1.328,0.465,1.841,0.822l-0.59,1.43c-0.524-0.333-1.085-0.587-1.68-0.76c-0.597-0.172-1.18-0.259-1.752-0.259
			c-1.013,0-1.771,0.185-2.278,0.554c-0.506,0.369-0.759,0.847-0.759,1.43c0,0.429,0.143,0.777,0.429,1.046
			c0.286,0.268,0.64,0.477,1.063,0.625c0.422,0.149,0.997,0.307,1.724,0.474c0.941,0.227,1.698,0.453,2.27,0.679
			c0.572,0.227,1.063,0.572,1.475,1.037c0.411,0.464,0.616,1.09,0.616,1.876c0,0.655-0.179,1.254-0.536,1.796
			s-0.899,0.971-1.626,1.286c-0.727,0.316-1.62,0.474-2.681,0.474C306.872,15.993,305.964,15.848,305.089,15.556z"/>
		<path class="st0" d="M316.552,14.564c-0.93-0.953-1.394-2.323-1.394-4.11V3.342h1.786v7.041c0,2.68,1.174,4.021,3.521,4.021
			c1.144,0,2.02-0.331,2.627-0.992s0.911-1.671,0.911-3.028V3.342h1.733v7.112c0,1.799-0.464,3.172-1.394,4.119
			c-0.929,0.946-2.228,1.42-3.896,1.42S317.48,15.518,316.552,14.564z"/>
		<path class="st0" d="M337.103,12.724h-6.648l-1.376,3.127h-1.84l5.664-12.509h1.77l5.683,12.509h-1.876L337.103,12.724z
			 M336.477,11.294l-2.698-6.13l-2.698,6.13H336.477z"/>
		<path class="st0" d="M350.575,15.851l-2.698-3.842c-0.334,0.023-0.596,0.035-0.786,0.035h-3.092v3.807h-1.787V3.342h4.879
			c1.62,0,2.895,0.388,3.824,1.161c0.929,0.775,1.394,1.841,1.394,3.199c0,0.965-0.238,1.787-0.715,2.466s-1.155,1.174-2.037,1.483
			l2.967,4.199H350.575z M349.628,9.793c0.596-0.488,0.894-1.186,0.894-2.091s-0.298-1.6-0.894-2.082s-1.459-0.724-2.591-0.724
			h-3.038v5.629h3.038C348.169,10.525,349.032,10.281,349.628,9.793z"/>
		<path class="st0" d="M355.203,3.342h1.787v12.509h-1.787V3.342z"/>
		<path class="st0" d="M362.977,15.163c-1.013-0.555-1.809-1.319-2.386-2.297c-0.578-0.977-0.867-2.066-0.867-3.271
			c0-1.203,0.289-2.293,0.867-3.27c0.577-0.977,1.373-1.742,2.386-2.297c1.012-0.554,2.15-0.83,3.413-0.83
			c1.251,0,2.382,0.276,3.395,0.83c1.013,0.555,1.806,1.317,2.377,2.288c0.572,0.971,0.857,2.063,0.857,3.278
			c0,1.216-0.285,2.309-0.857,3.279c-0.571,0.972-1.364,1.733-2.377,2.288c-1.013,0.554-2.144,0.83-3.395,0.83
			C365.127,15.993,363.988,15.717,362.977,15.163z M368.864,13.777c0.732-0.417,1.311-0.991,1.733-1.724
			c0.423-0.733,0.635-1.552,0.635-2.458c0-0.904-0.212-1.724-0.635-2.457c-0.423-0.732-1.001-1.307-1.733-1.724
			s-1.558-0.626-2.475-0.626c-0.918,0-1.749,0.209-2.493,0.626s-1.328,0.991-1.751,1.724c-0.423,0.733-0.635,1.553-0.635,2.457
			c0,0.906,0.212,1.725,0.635,2.458c0.423,0.732,1.007,1.307,1.751,1.724c0.744,0.418,1.575,0.626,2.493,0.626
			C367.307,14.403,368.132,14.195,368.864,13.777z"/>
	</g>
</g>
<g>
	<g>
		<path class="st0" d="M470.584,4.503c0.929,0.775,1.394,1.841,1.394,3.199s-0.465,2.424-1.394,3.198
			c-0.93,0.774-2.204,1.162-3.824,1.162h-3.092v3.788h-1.787V3.342h4.879C468.38,3.342,469.654,3.729,470.584,4.503z M469.297,9.784
			c0.596-0.482,0.894-1.177,0.894-2.082s-0.298-1.6-0.894-2.082s-1.459-0.724-2.591-0.724h-3.038v5.611h3.038
			C467.838,10.508,468.701,10.267,469.297,9.784z"/>
		<path class="st0" d="M475.927,14.564c-0.93-0.953-1.394-2.323-1.394-4.11V3.342h1.786v7.041c0,2.68,1.174,4.021,3.521,4.021
			c1.144,0,2.02-0.331,2.627-0.992s0.911-1.671,0.911-3.028V3.342h1.733v7.112c0,1.799-0.464,3.172-1.394,4.119
			c-0.929,0.946-2.228,1.42-3.896,1.42S476.855,15.518,475.927,14.564z"/>
		<path class="st0" d="M499.532,3.342v12.509h-1.465l-7.506-9.328v9.328h-1.787V3.342h1.466l7.505,9.328V3.342H499.532z"/>
		<path class="st0" d="M505.769,4.896h-4.289V3.342h10.347v1.555h-4.289v10.954h-1.769V4.896z"/>
		<path class="st0" d="M515.83,15.163c-1.013-0.555-1.809-1.319-2.386-2.297c-0.578-0.977-0.867-2.066-0.867-3.271
			c0-1.203,0.289-2.293,0.867-3.27c0.577-0.977,1.373-1.742,2.386-2.297c1.012-0.554,2.15-0.83,3.413-0.83
			c1.251,0,2.382,0.276,3.395,0.83c1.013,0.555,1.806,1.317,2.377,2.288c0.572,0.971,0.857,2.063,0.857,3.278
			c0,1.216-0.285,2.309-0.857,3.279c-0.571,0.972-1.364,1.733-2.377,2.288c-1.013,0.554-2.144,0.83-3.395,0.83
			C517.98,15.993,516.842,15.717,515.83,15.163z M521.718,13.777c0.732-0.417,1.311-0.991,1.733-1.724
			c0.423-0.733,0.635-1.552,0.635-2.458c0-0.904-0.212-1.724-0.635-2.457c-0.423-0.732-1.001-1.307-1.733-1.724
			s-1.558-0.626-2.475-0.626c-0.918,0-1.749,0.209-2.493,0.626s-1.328,0.991-1.751,1.724c-0.423,0.733-0.635,1.553-0.635,2.457
			c0,0.906,0.212,1.725,0.635,2.458c0.423,0.732,1.007,1.307,1.751,1.724c0.744,0.418,1.575,0.626,2.493,0.626
			C520.16,14.403,520.985,14.195,521.718,13.777z"/>
		<path class="st0" d="M529.526,15.556c-0.876-0.292-1.563-0.67-2.064-1.135l0.661-1.394c0.477,0.429,1.087,0.777,1.832,1.045
			c0.744,0.269,1.51,0.402,2.296,0.402c1.037,0,1.811-0.176,2.323-0.527c0.512-0.351,0.769-0.818,0.769-1.402
			c0-0.429-0.141-0.777-0.42-1.046c-0.28-0.268-0.626-0.474-1.036-0.616c-0.411-0.143-0.992-0.304-1.743-0.482
			c-0.94-0.227-1.7-0.453-2.278-0.679c-0.577-0.227-1.072-0.575-1.482-1.046c-0.411-0.471-0.617-1.104-0.617-1.903
			c0-0.667,0.176-1.269,0.527-1.805s0.885-0.965,1.6-1.286c0.715-0.322,1.602-0.482,2.662-0.482c0.739,0,1.466,0.095,2.181,0.285
			c0.715,0.191,1.328,0.465,1.841,0.822l-0.59,1.43c-0.524-0.333-1.085-0.587-1.68-0.76c-0.597-0.172-1.18-0.259-1.752-0.259
			c-1.013,0-1.771,0.185-2.278,0.554c-0.506,0.369-0.759,0.847-0.759,1.43c0,0.429,0.143,0.777,0.429,1.046
			c0.286,0.268,0.64,0.477,1.063,0.625c0.422,0.149,0.997,0.307,1.724,0.474c0.941,0.227,1.698,0.453,2.27,0.679
			c0.572,0.227,1.063,0.572,1.475,1.037c0.411,0.464,0.616,1.09,0.616,1.876c0,0.655-0.179,1.254-0.536,1.796
			s-0.899,0.971-1.626,1.286c-0.727,0.316-1.62,0.474-2.681,0.474C531.31,15.993,530.401,15.848,529.526,15.556z"/>
	</g>
</g>
<g>
	<g>
		<path class="st0" d="M160.697,384.231v14.808h-0.592l-10.514-13.496v13.496h-0.719v-14.808h0.592l10.514,13.496v-13.496H160.697z"
			/>
		<path class="st0" d="M166.112,384.231h0.719v14.808h-0.719V384.231z"/>
		<path class="st0" d="M183.5,384.231l-6.642,14.808h-0.698l-6.643-14.808h0.804l6.22,13.877l6.197-13.877H183.5z"/>
		<path class="st0" d="M196.065,398.384v0.655h-10.005v-14.808h9.709v0.656h-8.99v6.304h8.038v0.655h-8.038v6.537H196.065z"/>
		<path class="st0" d="M200.19,384.231h0.719v14.152h8.673v0.655h-9.392V384.231z"/>
		<path class="st0" d="M218.541,398.553c-0.967-0.381-1.711-0.874-2.232-1.48l0.381-0.508c0.494,0.563,1.182,1.025,2.062,1.385
			c0.882,0.36,1.822,0.54,2.824,0.54c1.48,0,2.599-0.293,3.353-0.878c0.755-0.585,1.132-1.336,1.132-2.253
			c0-0.705-0.197-1.272-0.592-1.703c-0.396-0.43-0.882-0.754-1.46-0.973s-1.368-0.447-2.369-0.688
			c-1.072-0.268-1.933-0.529-2.581-0.783s-1.198-0.642-1.649-1.163c-0.452-0.521-0.677-1.22-0.677-2.094
			c0-0.691,0.183-1.326,0.55-1.904c0.366-0.578,0.927-1.04,1.682-1.386c0.754-0.345,1.695-0.518,2.824-0.518
			c0.804,0,1.597,0.119,2.379,0.359c0.783,0.24,1.449,0.571,1.999,0.994l-0.316,0.571c-0.579-0.423-1.224-0.744-1.936-0.963
			c-0.713-0.219-1.414-0.328-2.105-0.328c-1.438,0-2.527,0.3-3.268,0.899c-0.741,0.6-1.111,1.357-1.111,2.274
			c0,0.719,0.201,1.294,0.604,1.724c0.401,0.431,0.896,0.758,1.48,0.983s1.371,0.459,2.358,0.698
			c1.071,0.269,1.932,0.525,2.581,0.772c0.648,0.246,1.195,0.627,1.64,1.142c0.443,0.516,0.666,1.203,0.666,2.062
			c0,0.691-0.188,1.326-0.561,1.904c-0.374,0.578-0.948,1.036-1.724,1.375c-0.776,0.338-1.735,0.508-2.877,0.508
			C220.525,399.124,219.507,398.934,218.541,398.553z"/>
		<path class="st0" d="M233.231,384.888h-5.437v-0.656h11.57v0.656h-5.437v14.151h-0.697V384.888z"/>
		<path class="st0" d="M252.163,398.384v0.655h-10.005v-14.808h9.709v0.656h-8.99v6.304h8.038v0.655h-8.038v6.537H252.163z"/>
		<path class="st0" d="M257.008,384.888v6.769h8.038v0.635h-8.038v6.748h-0.719v-14.808h9.709v0.656H257.008z"/>
		<path class="st0" d="M277.971,394.702h-8.863l-1.988,4.337h-0.782l6.854-14.808h0.698l6.854,14.808h-0.783L277.971,394.702z
			 M277.696,394.089l-4.146-9.032l-4.167,9.032H277.696z"/>
		<path class="st0" d="M295.443,384.231v14.808h-0.592l-10.514-13.496v13.496h-0.719v-14.808h0.592l10.514,13.496v-13.496H295.443z"
			/>
		<path class="st0" d="M320.319,399.039l-0.021-13.348l-6.494,11.296h-0.381l-6.516-11.254v13.306h-0.697v-14.808h0.592
			l6.812,11.846l6.79-11.846h0.593l0.021,14.808H320.319z"/>
		<path class="st0" d="M336.438,398.384v0.655h-10.005v-14.808h9.709v0.656h-8.99v6.304h8.038v0.655h-8.038v6.537H336.438z"/>
		<path class="st0" d="M340.563,384.231h5.711c1.537,0,2.901,0.317,4.094,0.952c1.191,0.635,2.115,1.513,2.771,2.634
			c0.656,1.121,0.983,2.394,0.983,3.818c0,1.424-0.327,2.696-0.983,3.817c-0.655,1.121-1.579,1.999-2.771,2.634
			c-1.192,0.635-2.557,0.952-4.094,0.952h-5.711V384.231z M346.232,398.384c1.438,0,2.697-0.289,3.775-0.868
			c1.079-0.578,1.915-1.378,2.507-2.4c0.593-1.022,0.889-2.183,0.889-3.479c0-1.298-0.296-2.457-0.889-3.48
			c-0.592-1.021-1.428-1.822-2.507-2.4c-1.078-0.578-2.337-0.867-3.775-0.867h-4.95v13.496H346.232z"/>
		<path class="st0" d="M358.036,384.231h0.719v14.808h-0.719V384.231z"/>
		<path class="st0" d="M375.994,384.231v14.808h-0.592l-10.514-13.496v13.496h-0.719v-14.808h0.592l10.514,13.496v-13.496H375.994z"
			/>
		<path class="st0" d="M390.484,394.702h-8.863l-1.988,4.337h-0.782l6.854-14.808h0.698l6.854,14.808h-0.783L390.484,394.702z
			 M390.21,394.089l-4.146-9.032l-4.167,9.032H390.21z"/>
	</g>
</g>
<g>
	<g>
		<path class="st0" d="M206.42,113.541v14.808h-0.592l-10.514-13.496v13.496h-0.719v-14.808h0.592l10.514,13.496v-13.496H206.42z"/>
		<path class="st0" d="M211.835,113.541h0.719v14.808h-0.719V113.541z"/>
		<path class="st0" d="M229.223,113.541l-6.642,14.808h-0.698l-6.643-14.808h0.804l6.22,13.877l6.197-13.877H229.223z"/>
		<path class="st0" d="M241.788,127.693v0.655h-10.005v-14.808h9.709v0.656h-8.99v6.304h8.038v0.655h-8.038v6.537H241.788z"/>
		<path class="st0" d="M245.913,113.541h0.719v14.152h8.673v0.655h-9.392V113.541z"/>
		<path class="st0" d="M264.295,114.197v6.769h8.038v0.635h-8.038v6.748h-0.719v-14.808h9.709v0.656H264.295z"/>
		<path class="st0" d="M285.258,124.012h-8.863l-1.988,4.337h-0.782l6.854-14.808h0.698l6.854,14.808h-0.783L285.258,124.012z
			 M284.983,123.398l-4.146-9.032l-4.167,9.032H284.983z"/>
		<path class="st0" d="M290.906,113.541h0.719v14.152h8.673v0.655h-9.392V113.541z"/>
		<path class="st0" d="M305.131,127.46c-1.163-0.648-2.077-1.544-2.739-2.687c-0.663-1.142-0.994-2.418-0.994-3.828
			s0.331-2.687,0.994-3.829c0.662-1.143,1.576-2.038,2.739-2.687s2.464-0.973,3.902-0.973c1.016,0,1.968,0.165,2.856,0.497
			c0.888,0.331,1.649,0.821,2.284,1.47l-0.444,0.466c-1.227-1.185-2.785-1.777-4.675-1.777c-1.298,0-2.475,0.3-3.532,0.899
			s-1.891,1.421-2.496,2.464c-0.606,1.044-0.91,2.2-0.91,3.47c0,1.269,0.304,2.426,0.91,3.469c0.605,1.044,1.438,1.865,2.496,2.465
			s2.234,0.898,3.532,0.898c1.875,0,3.434-0.599,4.675-1.798l0.444,0.466c-0.635,0.648-1.393,1.142-2.274,1.48
			c-0.881,0.338-1.837,0.508-2.866,0.508C307.595,128.434,306.294,128.109,305.131,127.46z"/>
		<path class="st0" d="M326.654,124.012h-8.863l-1.988,4.337h-0.782l6.854-14.808h0.698l6.854,14.808h-0.783L326.654,124.012z
			 M326.38,123.398l-4.146-9.032l-4.167,9.032H326.38z"/>
		<path class="st0" d="M334.323,127.46c-1.163-0.648-2.077-1.544-2.739-2.687c-0.663-1.142-0.994-2.418-0.994-3.828
			s0.331-2.687,0.994-3.829c0.662-1.143,1.576-2.038,2.739-2.687s2.464-0.973,3.902-0.973s2.743,0.324,3.914,0.973
			c1.17,0.648,2.087,1.544,2.75,2.687c0.662,1.143,0.994,2.419,0.994,3.829s-0.332,2.687-0.994,3.828
			c-0.663,1.143-1.58,2.038-2.75,2.687c-1.171,0.649-2.476,0.974-3.914,0.974S335.486,128.109,334.323,127.46z M341.759,126.889
			c1.058-0.592,1.89-1.409,2.496-2.453c0.605-1.044,0.909-2.207,0.909-3.49s-0.304-2.447-0.909-3.49
			c-0.606-1.044-1.438-1.862-2.496-2.454c-1.058-0.593-2.235-0.889-3.533-0.889c-1.297,0-2.472,0.296-3.521,0.889
			c-1.051,0.592-1.88,1.41-2.485,2.454c-0.606,1.043-0.91,2.207-0.91,3.49s0.304,2.446,0.91,3.49
			c0.605,1.044,1.435,1.861,2.485,2.453c1.05,0.593,2.225,0.889,3.521,0.889C339.523,127.777,340.701,127.481,341.759,126.889z"/>
	</g>
</g>
<g>
	<g>
		<path class="st0" d="M147.784,41.409v14.808h-0.592l-10.514-13.496v13.496h-0.719V41.409h0.592l10.514,13.496V41.409H147.784z"/>
		<path class="st0" d="M153.2,41.409h0.719v14.808H153.2V41.409z"/>
		<path class="st0" d="M170.587,41.409l-6.642,14.808h-0.698l-6.643-14.808h0.804l6.22,13.877l6.197-13.877H170.587z"/>
		<path class="st0" d="M183.152,55.562v0.655h-10.005V41.409h9.709v0.656h-8.99v6.304h8.038v0.655h-8.038v6.537H183.152z"/>
		<path class="st0" d="M187.277,41.409h0.719v14.152h8.673v0.655h-9.392V41.409z"/>
		<path class="st0" d="M214.406,42.71c1.036,0.867,1.555,2.07,1.555,3.607c0,1.551-0.519,2.76-1.555,3.627
			c-1.036,0.868-2.479,1.302-4.326,1.302h-4.421v4.971h-0.719V41.409h5.14C211.928,41.409,213.37,41.843,214.406,42.71z
			 M213.931,49.479c0.888-0.74,1.332-1.795,1.332-3.162c0-1.354-0.444-2.401-1.332-3.142c-0.889-0.74-2.158-1.11-3.808-1.11h-4.464
			v8.524h4.464C211.772,50.59,213.042,50.22,213.931,49.479z"/>
		<path class="st0" d="M230.197,56.217l-3.659-5.098c-0.48,0.084-1.016,0.127-1.608,0.127h-4.421v4.971h-0.719V41.409h5.14
			c1.848,0,3.29,0.434,4.326,1.301s1.555,2.07,1.555,3.607c0,1.185-0.307,2.175-0.92,2.972s-1.491,1.351-2.634,1.66l3.786,5.268
			H230.197z M224.973,50.59c1.649,0,2.919-0.37,3.808-1.11c0.888-0.74,1.332-1.795,1.332-3.162c0-1.354-0.444-2.401-1.332-3.142
			c-0.889-0.74-2.158-1.11-3.808-1.11h-4.464v8.524H224.973z"/>
		<path class="st0" d="M237.209,55.328c-1.163-0.648-2.077-1.544-2.739-2.687c-0.663-1.142-0.994-2.418-0.994-3.828
			s0.331-2.687,0.994-3.829c0.662-1.143,1.576-2.038,2.739-2.687s2.464-0.973,3.902-0.973s2.743,0.324,3.914,0.973
			c1.17,0.648,2.087,1.544,2.75,2.687c0.662,1.143,0.994,2.419,0.994,3.829s-0.332,2.687-0.994,3.828
			c-0.663,1.143-1.58,2.038-2.75,2.687c-1.171,0.649-2.476,0.974-3.914,0.974S238.372,55.978,237.209,55.328z M244.645,54.757
			c1.058-0.592,1.89-1.409,2.496-2.453c0.605-1.044,0.909-2.207,0.909-3.49s-0.304-2.447-0.909-3.49
			c-0.606-1.044-1.438-1.862-2.496-2.454c-1.058-0.593-2.235-0.889-3.533-0.889c-1.297,0-2.472,0.296-3.521,0.889
			c-1.051,0.592-1.88,1.41-2.485,2.454c-0.606,1.043-0.91,2.207-0.91,3.49s0.304,2.446,0.91,3.49
			c0.605,1.044,1.435,1.861,2.485,2.453c1.05,0.593,2.225,0.889,3.521,0.889C242.409,55.646,243.587,55.35,244.645,54.757z"/>
		<path class="st0" d="M253.401,42.065v6.769h8.038v0.635h-8.038v6.748h-0.719V41.409h9.709v0.656H253.401z"/>
		<path class="st0" d="M276.015,55.562v0.655H266.01V41.409h9.709v0.656h-8.99v6.304h8.038v0.655h-8.038v6.537H276.015z"/>
		<path class="st0" d="M294.957,42.71c1.036,0.867,1.555,2.07,1.555,3.607c0,1.551-0.519,2.76-1.555,3.627
			c-1.036,0.868-2.479,1.302-4.326,1.302h-4.421v4.971h-0.719V41.409h5.14C292.479,41.409,293.921,41.843,294.957,42.71z
			 M294.481,49.479c0.888-0.74,1.332-1.795,1.332-3.162c0-1.354-0.444-2.401-1.332-3.142c-0.889-0.74-2.158-1.11-3.808-1.11h-4.464
			v8.524h4.464C292.323,50.59,293.593,50.22,294.481,49.479z"/>
		<path class="st0" d="M310.346,55.562v0.655h-10.005V41.409h9.709v0.656h-8.99v6.304h8.038v0.655h-8.038v6.537H310.346z
			 M307.089,37.813h1.142l-3.236,2.391h-0.846L307.089,37.813z"/>
		<path class="st0" d="M318.723,48.665l-3.532,3.639v3.913h-0.719V41.409h0.719v9.964l9.688-9.964h0.889l-6.558,6.77l7.022,8.038
			h-0.889L318.723,48.665z"/>
		<path class="st0" d="M339.22,55.562v0.655h-10.005V41.409h9.709v0.656h-8.99v6.304h8.038v0.655h-8.038v6.537H339.22z"/>
		<path class="st0" d="M353.753,56.217l-3.659-5.098c-0.48,0.084-1.016,0.127-1.608,0.127h-4.421v4.971h-0.719V41.409h5.14
			c1.848,0,3.29,0.434,4.326,1.301s1.555,2.07,1.555,3.607c0,1.185-0.307,2.175-0.92,2.972s-1.491,1.351-2.634,1.66l3.786,5.268
			H353.753z M348.528,50.59c1.649,0,2.919-0.37,3.808-1.11c0.888-0.74,1.332-1.795,1.332-3.162c0-1.354-0.444-2.401-1.332-3.142
			c-0.889-0.74-2.158-1.11-3.808-1.11h-4.464v8.524H348.528z"/>
		<path class="st0" d="M372.643,56.217l-0.021-13.348l-6.494,11.296h-0.381l-6.516-11.254v13.306h-0.697V41.409h0.592l6.812,11.846
			l6.79-11.846h0.593l0.021,14.808H372.643z"/>
		<path class="st0" d="M387.83,51.88h-8.863l-1.988,4.337h-0.782l6.854-14.808h0.698l6.854,14.808h-0.783L387.83,51.88z
			 M387.556,51.267l-4.146-9.032l-4.167,9.032H387.556z"/>
		<path class="st0" d="M405.303,41.409v14.808h-0.592l-10.514-13.496v13.496h-0.719V41.409h0.592l10.514,13.496V41.409H405.303z"/>
	</g>
</g>
</svg>