<!-- Generator: Adobe Illustrator 19.0.0, SVG Export Plug-In  -->
<svg version="1.1"
	 xmlns="http://www.w3.org/2000/svg" xmlns:xlink="http://www.w3.org/1999/xlink" xmlns:a="http://ns.adobe.com/AdobeSVGViewerExtensions/3.0/"
	 x="0px" y="0px" width="253.787px" height="159.714px" viewBox="0 0 253.787 159.714"
	 style="enable-background:new 0 0 253.787 159.714;" xml:space="preserve">
<style type="text/css">
	.st0{fill-rule:evenodd;clip-rule:evenodd;fill:url(#SVGID_1_);}
	.st1{fill-rule:evenodd;clip-rule:evenodd;fill:url(#SVGID_2_);}
	.st2{fill-rule:evenodd;clip-rule:evenodd;fill:url(#SVGID_3_);}
	.st3{fill-rule:evenodd;clip-rule:evenodd;fill:url(#SVGID_4_);}
	.st4{fill-rule:evenodd;clip-rule:evenodd;fill:url(#SVGID_5_);}
	.st5{fill-rule:evenodd;clip-rule:evenodd;fill:#A80000;}
	.st6{fill-rule:evenodd;clip-rule:evenodd;fill:#99825E;}
	.st7{fill-rule:evenodd;clip-rule:evenodd;fill:url(#SVGID_6_);}
	.st8{fill-rule:evenodd;clip-rule:evenodd;fill:url(#SVGID_7_);}
	.st9{fill-rule:evenodd;clip-rule:evenodd;fill:url(#SVGID_8_);}
	.st10{fill-rule:evenodd;clip-rule:evenodd;fill:url(#SVGID_9_);}
	.st11{fill-rule:evenodd;clip-rule:evenodd;fill:url(#SVGID_10_);}
</style>
<defs>
</defs>
<g>
	<radialGradient id="SVGID_1_" cx="130.7982" cy="49.361" r="37.0222" gradientUnits="userSpaceOnUse">
		<stop  offset="0" style="stop-color:#DBCBB3"/>
		<stop  offset="1" style="stop-color:#C2A578"/>
	</radialGradient>
	<path class="st0" d="M117.009,58.38c-8.028-19.564-1.04-35.883,3.53-42.094c0.544,1.39,1.161,3.699-1.5,5.787
		c-4.249,9.766,0.349,37.823,9.625,30.867c0.507-0.38-6.404-7.616-1.208-12.482c1.83-1.712,6.96-3.37,9.664,0.74
		c3.207,4.875-1.744,11.661-0.601,11.66c4.787-0.012,12.712-15.783,4.427-31.862c-3.015-1.28-1.749-4.534-1.681-5.839
		c19.817,24.118,4.243,71.251-21.177,83.565c4.524-7.877,6.713-11.685,7.653-17.345c0,0-2.235,4.331-6.003,5.858
		C122.888,76.868,119.564,64.606,117.009,58.38L117.009,58.38z M122.683,2.765c-0.26-0.123-0.522-0.245-0.782-0.368
		c0.014,0.589,0.043,1.186,0.087,1.793c-11.76-1.096,2.835,16.26,3.303,17.236c1.399,5.778,2.466,7.014,1.825,10.051
		c-0.525,0.013-1.049,0.025-1.575,0.037c0.031,1.315,0.062,2.632,0.093,3.948c3.545,0.475,6.952,0.432,10.194-0.239
		c-0.031-1.316-0.062-2.631-0.093-3.948c-0.574,0.014-1.149,0.027-1.722,0.041c-1.399-2.565-0.608-3.899,0.454-9.879
		c0.401-0.976,14.046-19.113,2.524-17.614c0.018-0.61,0.022-1.209,0.008-1.793C132.235,4.296,128.09,4.858,122.683,2.765
		L122.683,2.765z M122.354,1.812c4.582-2.099,9.756-2.61,14.388-0.267c-0.677,1.758-3.061-0.987-7.325-0.88
		C125.279,0.768,123.161,3.578,122.354,1.812L122.354,1.812z M136.946,4.92c-0.237,4.271-1.108,9.03-1.937,13.544
		C137.634,14.439,142.711,4.304,136.946,4.92L136.946,4.92z M124.577,18.482c-1.048-4.357-2.082-8.942-2.497-13.203
		C116.528,4.83,121.25,13.926,124.577,18.482L124.577,18.482z M129.745,14.757c-0.793-2.658-0.671-2.537-3.361-3.207
		c2.655-0.794,2.539-0.671,3.208-3.36c0.792,2.655,0.67,2.538,3.359,3.207C130.295,12.191,130.413,12.066,129.745,14.757
		L129.745,14.757z M129.809,5.398c-2.172,0.086-4.429-0.325-6.786-1.315c0.555,10.573,6.857,21.522,4.919,28.445
		c-0.434,0.01-0.869,0.02-1.304,0.031c0.015,0.602,0.028,1.205,0.042,1.807c2.899,0.453,5.591,0.406,8.054-0.189
		c-0.015-0.603-0.028-1.206-0.043-1.808c-0.421,0.01-0.842,0.02-1.263,0.03c-3.779-5.878,2.442-18.059,2.53-28.608
		C133.988,4.752,131.943,5.314,129.809,5.398L129.809,5.398z M127.607,32.957c-0.324,0-0.587,0.264-0.587,0.587
		c0,0.326,0.263,0.59,0.587,0.59c0.325,0,0.588-0.264,0.588-0.59C128.195,33.221,127.932,32.957,127.607,32.957L127.607,32.957z
		 M130.634,33.196c-0.324,0-0.587,0.263-0.587,0.587c0,0.325,0.264,0.589,0.587,0.589c0.325,0,0.59-0.264,0.59-0.589
		C131.224,33.46,130.959,33.196,130.634,33.196L130.634,33.196z M133.56,32.893c-0.324,0-0.587,0.263-0.587,0.587
		c0,0.326,0.264,0.59,0.587,0.59c0.325,0,0.589-0.264,0.589-0.59C134.148,33.157,133.885,32.893,133.56,32.893L133.56,32.893z
		 M129.809,5.398c-2.172,0.086-4.429-0.325-6.786-1.315c0.555,10.573,6.857,21.522,4.921,28.446
		c-0.436,0.009-0.871,0.019-1.306,0.031c0.015,0.601,0.028,1.204,0.042,1.806c2.9,0.454,5.59,0.407,8.053-0.188
		c-0.014-0.603-0.028-1.205-0.043-1.808c-0.421,0.01-0.842,0.02-1.263,0.03c-3.779-5.878,2.442-18.059,2.53-28.608
		C133.988,4.752,131.943,5.314,129.809,5.398z"/>
	<radialGradient id="SVGID_2_" cx="216.3293" cy="100.8015" r="34.7225" gradientUnits="userSpaceOnUse">
		<stop  offset="0" style="stop-color:#DBCBB3"/>
		<stop  offset="1" style="stop-color:#C2A578"/>
	</radialGradient>
	<path class="st1" d="M203.311,101.67c4.697-13.703,11.924-20.861,18.266-24.37c0.543,0.262,1.081,0.529,1.614,0.804
		c-9.025,4.769-18.968,26.142-8.173,26.971c0.602,0.047,0.194-9.431,6.938-9.653c2.374-0.077,7.069,1.947,6.426,6.566
		c-0.759,5.479-8.529,7.223-7.714,7.936c3.386,2.953,18.641,0.842,22.96-15.354c0.492,0.601,0.974,1.213,1.449,1.837
		c-6.814,25.299-42.651,41.181-66.205,34.697c8.147-2.788,12.086-4.136,16.294-7.583c0,0-4.3,1.692-7.939,0.425
		C195.948,118.523,201.24,107.704,203.311,101.67L203.311,101.67z M224.011,70.966l-3.604,4.394
		c10.782,4.862,19.588,11.952,26.457,21.567l3.544-4.319C244.4,80.813,235.369,73.124,224.011,70.966L224.011,70.966z
		 M250.111,103.594c-1.463-1.142-2.808-2.423-4.019-3.807c0.166-0.198,0.618-0.747,0.783-0.947c1.053,1.617,2.291,3.009,3.77,4.109
		L250.111,103.594L250.111,103.594z M251.145,102.342l0.521-0.63c-1.527-1.043-2.708-2.503-3.827-4.038
		c-0.173,0.208-0.562,0.679-0.734,0.887C248.291,100.017,249.599,101.323,251.145,102.342L251.145,102.342z M252.182,101.089
		c-1.547-1.019-2.86-2.318-4.114-3.693c0.173-0.209,0.706-0.852,0.879-1.062c1.052,1.616,2.229,3.084,3.756,4.126L252.182,101.089
		L252.182,101.089z M253.255,99.791c-1.543-1.024-2.826-2.362-4.077-3.737c0.163-0.197,0.76-0.917,0.923-1.116
		c1.05,1.625,2.297,2.984,3.686,4.209L253.255,99.791L253.255,99.791z M212.921,73.531c1.41,1.209,2.93,2.272,4.527,3.187
		c0.163-0.201,0.611-0.754,0.774-0.955c-1.793-0.712-3.404-1.65-4.775-2.882L212.921,73.531L212.921,73.531z M213.943,72.269
		l0.514-0.634c1.323,1.29,2.989,2.159,4.716,2.953c-0.171,0.211-0.554,0.684-0.724,0.895
		C216.788,74.608,215.248,73.583,213.943,72.269L213.943,72.269z M214.967,71.005l0.513-0.634c1.324,1.29,2.996,2.153,4.788,2.864
		c-0.172,0.211-0.697,0.861-0.867,1.07C217.806,73.35,216.272,72.32,214.967,71.005L214.967,71.005z M216.026,69.698l0.526-0.649
		c1.475,1.121,3.055,2.074,4.855,2.781c-0.162,0.199-0.751,0.926-0.912,1.126C218.9,71.999,217.336,71.007,216.026,69.698
		L216.026,69.698z M234.758,79.832c1.3,1.728,1.282,1.595,0.456,3.594c1.728-1.3,1.596-1.282,3.595-0.456
		c-1.3-1.727-1.283-1.596-0.456-3.594C236.624,80.675,236.757,80.659,234.758,79.832L234.758,79.832z M230.027,76.49
		c0.813,1.079,0.802,0.997,0.285,2.246c1.081-0.812,0.998-0.802,2.247-0.285c-0.813-1.08-0.802-0.998-0.286-2.246
		C231.193,77.016,231.277,77.006,230.027,76.49L230.027,76.49z M240.632,84.579c0.812,1.08,0.801,0.997,0.284,2.246
		c1.08-0.811,0.998-0.802,2.246-0.284c-0.812-1.08-0.801-0.999-0.284-2.246C241.797,85.105,241.881,85.096,240.632,84.579z"/>
	<radialGradient id="SVGID_3_" cx="180.7727" cy="62.7122" r="36.2633" gradientUnits="userSpaceOnUse">
		<stop  offset="0" style="stop-color:#DBCBB3"/>
		<stop  offset="1" style="stop-color:#C2A578"/>
	</radialGradient>
	<path class="st2" d="M163.677,70.069c-0.512-19.295,7.561-28.912,13.473-32.73c0.015,1.362-0.208,3.532-3.155,4.451
		c-6.788,6.959-8.784,30.341,1.39,27.412c0.56-0.161-2.998-8.573,3.013-11.042c2.114-0.868,7.032-0.621,8.008,3.761
		c1.156,5.197-5.266,9.385-4.291,9.755c4.087,1.541,17.451-4.741,15.59-21.144c0.715,0.48,1.151,0.412,1.877,0.604
		c3.733,24.999-24.578,51.63-48.051,53.707c6.413-5.255,9.513-7.797,12.15-12.322c0,0-3.31,2.974-7.021,3.054
		C162.705,87.749,163.841,76.209,163.677,70.069L163.677,70.069z M194.22,31.022c1.229-2.153,5.976-4.606,6.734-4.543
		c2.205,0.807,6.793,7.859,6.259,8.816c-0.079,0.128-4.103-7.232-6.56-7.654c-3.366,1.474-6.328,3.449-5.721,4.684
		c1.632,3.313,3.894,5.94,6.174,8.914c0.423,0.549,1.002,1.048,1.933,0.652c2.08-0.885,5.666-3.074,6.607-3.824
		c0.358-0.719,0.496-1.474,0.231-2.184c-1.454-3.901-3.884-7.478-7.276-10.799c-0.558-0.545-1.19-0.924-2.016-0.977
		c-2.261,1.257-5.536,3.623-6.208,4.535C193.75,29.495,193.839,30.298,194.22,31.022L194.22,31.022z M195.362,26.892
		c-2.139,1.625-2.178,2.462-1.333,4.293c-2.436,0.31-4.894,0.332-7.377,0.017c-2.029-0.63-1.63-8.206,1.46-7.66
		C190.056,24.984,192.959,26.557,195.362,26.892L195.362,26.892z M201.736,48.869c-1.064-2.673,0.261-5.657,1.075-6.897
		c-1.39,0.759-3.103-1.568-3.547-2.205c-1.492,2.022-3.01,4.438-3.951,6.819c-0.247,1.207,1.615,2.783,3.421,3.312
		c-0.347-0.299-0.85-0.95-1.065-1.873c-0.818-3.373,1.842-4.551,1.584-2.948c-0.143,0.896-1.073,1.092-1.059,2.741
		c0.01,1.047,0.674,1.89,0.852,2.16C200.236,50.245,201.345,50.014,201.736,48.869L201.736,48.869z M184.732,26.423
		c-1.066-0.503-2.309-2.607-2.079-3.881c0.274-1.521,1.738-1.369,2.011-0.508c0.123,0.383-0.111,1.034,0.003,1.138
		c0.183,0.166,0.761-0.527,0.662-1.305c-0.217-1.701-2.935-1.904-3.22,0.564c-0.192,1.656,1.424,3.854,2.591,4.116
		C185.123,26.642,185.091,26.594,184.732,26.423z"/>
	<radialGradient id="SVGID_4_" cx="73.5947" cy="65.0182" r="35.9463" gradientUnits="userSpaceOnUse">
		<stop  offset="0" style="stop-color:#DBCBB3"/>
		<stop  offset="1" style="stop-color:#C2A578"/>
	</radialGradient>
	<path class="st3" d="M79.82,62.76c3.424-5,4.727-8.74-0.609-8.528c-0.32-2.965-1.861-3.818-4.626-2.56
		c-2.219-5.643-7.002-4.195-6.589,1.114c-3.115-0.319-4.001,1.198-3.364,3.973c-5.57,0.769-2.66,5.538,2.144,7.965
		C68.18,56.87,76.559,55.641,79.82,62.76L79.82,62.76z M78.044,57.834c-2.984-4.662-9.322-3.415-10.452,2.174
		C67.465,53.642,75.549,51.646,78.044,57.834L78.044,57.834z M72.983,52.488c-0.133,0.242-0.53,0.291-0.897,0.116
		c0.11,0.382-0.014,0.751-0.283,0.833c-0.269,0.081-0.584-0.155-0.711-0.53c-0.202,0.348-0.559,0.527-0.807,0.403
		c-0.248-0.126-0.295-0.51-0.109-0.865c-0.395,0.111-0.777-0.004-0.858-0.263c-0.082-0.259,0.168-0.566,0.558-0.694
		c-0.357-0.19-0.539-0.534-0.407-0.774c0.133-0.241,0.531-0.291,0.896-0.116c-0.109-0.381,0.016-0.751,0.284-0.832
		c0.268-0.082,0.583,0.155,0.711,0.53c0.203-0.348,0.56-0.528,0.807-0.403c0.248,0.125,0.296,0.51,0.109,0.865
		c0.396-0.111,0.776,0.005,0.858,0.263c0.081,0.259-0.167,0.565-0.557,0.693C72.934,51.905,73.117,52.247,72.983,52.488
		L72.983,52.488z M70.942,50.693c0.522-0.159,1.073,0.121,1.231,0.623c0.158,0.502-0.138,1.037-0.659,1.196
		c-0.523,0.159-1.073-0.12-1.231-0.623C70.124,51.388,70.42,50.853,70.942,50.693L70.942,50.693z M79.986,63.75
		c-0.43,0.073-0.837-0.204-0.905-0.62c-0.071-0.415,0.222-0.809,0.651-0.883c0.43-0.072,0.838,0.205,0.907,0.619
		C80.708,63.282,80.416,63.678,79.986,63.75L79.986,63.75z M66.946,65.955c-0.43,0.072-0.836-0.205-0.906-0.619
		c-0.07-0.415,0.222-0.81,0.652-0.883c0.43-0.073,0.836,0.205,0.906,0.619C67.669,65.487,67.377,65.882,66.946,65.955L66.946,65.955
		z M77.195,52.051c0.307,0.023,0.539,0.291,0.516,0.6c-0.023,0.307-0.292,0.538-0.599,0.516c-0.308-0.023-0.539-0.292-0.516-0.599
		C76.619,52.26,76.887,52.029,77.195,52.051L77.195,52.051z M81.204,55.394c0.307,0.023,0.539,0.291,0.516,0.599
		c-0.023,0.308-0.29,0.538-0.598,0.516c-0.309-0.023-0.54-0.292-0.517-0.599C80.628,55.602,80.896,55.371,81.204,55.394
		L81.204,55.394z M66.46,54.171c0.306,0.023,0.538,0.291,0.515,0.599c-0.023,0.307-0.291,0.539-0.598,0.516
		c-0.309-0.023-0.54-0.291-0.517-0.599C65.884,54.379,66.151,54.148,66.46,54.171L66.46,54.171z M63.454,58.408
		c0.308,0.023,0.539,0.291,0.516,0.599c-0.023,0.308-0.292,0.539-0.598,0.515c-0.308-0.022-0.541-0.29-0.518-0.598
		C62.878,58.616,63.146,58.385,63.454,58.408L63.454,58.408z M90.407,72.135c-0.516,6.203-0.025,17.947,5.645,26.21
		c-3.751-0.294-6.929-3.492-6.929-3.492c2.408,4.732,5.402,7.48,11.59,13.163c-23.591-3.436-49.395-31.674-45.572-56.954
		c0.669-0.371,1.341-0.729,2.015-1.074c-2.487,16.167,10.32,24.033,14.503,22.721c1.007-0.318-5.254-4.922-3.785-10.115
		c1.237-4.38,6.226-4.35,8.316-3.35c5.942,2.841,1.861,11.151,2.419,11.346c9.972,3.49,9.462-19.509,3.265-27.306
		c0.584-0.037,1.169-0.066,1.757-0.087C87.925,48.819,91.578,58.048,90.407,72.135L90.407,72.135z M52.265,45.362
		c1.593-1.498,3.3-2.808,5.11-3.93l0.055,0.229c0.314,1.364,0.925,2.792,2.399,3.192l0.096,0.025l0.098-0.002
		c5.375-0.137,11.322-1.694,16.007-4.371l0.081-0.048l0.067-0.068c1.052-1.084,1.049-2.634,0.836-4.063
		c2.38,0.026,4.833,0.239,7.343,0.636l1.372,5.253c-11.483-0.088-22.086,2.787-32.066,8.489L52.265,45.362L52.265,45.362z
		 M92.826,43.469c-0.068-0.262-0.135-0.525-0.204-0.788c-1.086,0.34-2.211,0.536-3.367,0.609c-0.04-0.176-0.081-0.35-0.123-0.525
		c1.128-0.163,2.231-0.423,3.299-0.825c-0.066-0.256-0.132-0.512-0.198-0.768c-1.064,0.381-2.182,0.56-3.324,0.64
		c-0.042-0.184-0.085-0.368-0.129-0.552c1.111-0.189,2.201-0.452,3.257-0.85c-0.065-0.256-0.131-0.513-0.197-0.769
		c-1.054,0.377-2.16,0.552-3.296,0.608c-0.049-0.205-0.097-0.411-0.145-0.617c1.101-0.175,2.185-0.418,3.231-0.807
		c-0.067-0.261-0.134-0.523-0.201-0.786c-1.966,0.412-3.816,0.647-5.415,0.495c0.412,1.949,0.951,4.035,1.523,5.922
		C88.94,44.545,90.833,44.141,92.826,43.469L92.826,43.469z M56.079,36.43c0.924,1.379,1.613,3.376,2.006,5.081
		c0.307,1.329,0.835,2.399,1.92,2.694c5.135-0.132,11.015-1.611,15.69-4.284c0.988-1.017,0.844-2.608,0.494-4.396
		c-0.277-1.413-0.493-2.609-0.577-3.561c-0.234,0.209-0.486,0.408-0.759,0.598l-0.014,0.011l-0.016,0.01
		c-1.313,0.822-2.76,0.989-4.259,0.635c-1.433-0.24-2.723,0.315-3.895,1.104l-0.035,0.023L66.6,34.365
		c-2.324,1.211-4.621,1.409-7.116,0.863C58.477,35.848,57.279,36.317,56.079,36.43L56.079,36.43z M58.919,37.335
		c-0.207,0.057-0.246,0.4-0.084,0.764c0.645,1.46,1.42,2.884,2.064,4.345c0.161,0.364,0.463,0.615,0.67,0.557
		c0.056-0.015,0.111-0.029,0.166-0.044c0.208-0.058,0.245-0.402,0.086-0.766c-0.647-1.46-1.161-2.955-1.807-4.415
		c-0.16-0.363-0.462-0.615-0.67-0.559C59.288,37.234,58.974,37.32,58.919,37.335L58.919,37.335z M62.415,36.761
		c-0.21,0.058-0.264,0.404-0.124,0.775c0.56,1.483,1.249,2.931,1.81,4.414c0.14,0.37,0.424,0.625,0.631,0.57
		c0.055-0.016,0.11-0.032,0.166-0.047c0.207-0.056,0.263-0.405,0.124-0.774c-0.561-1.483-0.992-3.002-1.553-4.485
		c-0.14-0.368-0.424-0.625-0.632-0.568C62.783,36.661,62.47,36.746,62.415,36.761L62.415,36.761z M66.111,36.006
		c-0.207,0.056-0.292,0.413-0.188,0.792c0.415,1.523,0.96,3.011,1.375,4.534c0.104,0.379,0.359,0.643,0.567,0.586
		c0.054-0.015,0.11-0.029,0.165-0.044c0.208-0.057,0.293-0.415,0.189-0.794c-0.415-1.523-0.701-3.081-1.117-4.604
		c-0.103-0.378-0.359-0.643-0.566-0.586C66.481,35.905,66.167,35.991,66.111,36.006L66.111,36.006z M69.472,34.961
		c-0.209,0.057-0.305,0.416-0.214,0.801c0.362,1.536,0.855,3.038,1.217,4.576c0.091,0.383,0.334,0.65,0.543,0.594
		c0.054-0.016,0.109-0.031,0.165-0.046c0.207-0.056,0.303-0.417,0.214-0.8c-0.364-1.537-0.596-3.109-0.959-4.647
		c-0.09-0.382-0.335-0.649-0.542-0.593C69.841,34.86,69.527,34.946,69.472,34.961L69.472,34.961z M72.971,33.752
		c-0.207,0.058-0.33,0.424-0.272,0.816c0.236,1.572,0.601,3.109,0.838,4.681c0.058,0.392,0.276,0.666,0.484,0.609
		c0.055-0.015,0.111-0.03,0.166-0.045c0.208-0.056,0.33-0.424,0.271-0.814c-0.235-1.573-0.342-3.179-0.577-4.751
		c-0.059-0.391-0.277-0.667-0.484-0.61C73.339,33.652,73.026,33.738,72.971,33.752L72.971,33.752z M59.887,34.563
		c0.657-0.203,2.4-1.646,3.099-3.438c-1.514,1.685-3.616,3.453-5.841,4.163c-1.083,0.347-2.299,0.409-3.717-0.14
		c-0.751-0.916-1.226-2.226-1.182-3.683c0.408-1.366,1.566-2.996,3.819-4.839c1.215-0.994,2.556-1.814,3.979-2.441
		c0.455,1.314,2.084,1.624,3.298,1.292c1.187-0.323,2.403-1.375,2.201-2.694c2.244-0.186,8.958,0.213,9.948,2.344
		c0.119,0.335-2.888-1.038-4.011,0.037c1.692-0.491,4.227,0.546,4.473,1.375c0.623,2.087,0.62,3.927-1.519,5.419
		c-1.102,0.69-2.343,0.87-3.723,0.538c-1.604-0.277-3.062,0.279-4.451,1.215C63.775,35.009,62.197,35.038,59.887,34.563
		L59.887,34.563z M62.334,24.719c0.509,0.346,1.28,0.134,1.542-0.421c0.592,0.159,0.988-0.389,0.662-0.666
		c0.585-0.171,0.329-0.616-0.033-0.745c0.365,1.387-3.196,2.31-3.473,0.925c-0.279,0.299-0.252,0.835,0.392,0.67
		C61.21,25.068,62.033,25.027,62.334,24.719L62.334,24.719z M62.424,22.114c-0.975,0.266-1.62,1.016-1.441,1.674
		c0.181,0.659,1.117,0.978,2.091,0.712c0.976-0.267,1.62-1.016,1.441-1.676C64.336,22.165,63.4,21.848,62.424,22.114L62.424,22.114z
		 M62.553,22.585c-0.383,0.105-1.239,0.557-1.098,1.075c0.141,0.518,1.109,0.472,1.491,0.367c0.384-0.105,1.24-0.556,1.099-1.074
		C63.902,22.435,62.935,22.481,62.553,22.585L62.553,22.585z M47.951,55.561c2.065-0.404,3.91-0.99,5.084-1.762
		c-0.438-1.923-1.002-4.002-1.609-5.898c-1.314,0.924-3.038,1.635-4.949,2.251c0.07,0.262,0.142,0.522,0.214,0.783
		c1.102-0.18,2.163-0.506,3.207-0.899c0.06,0.203,0.119,0.405,0.178,0.608c-1.015,0.514-2.062,0.909-3.164,1.104
		c0.07,0.255,0.139,0.51,0.209,0.765c1.115-0.177,2.192-0.49,3.251-0.874c0.054,0.182,0.107,0.363,0.162,0.544
		c-1.033,0.496-2.092,0.893-3.206,1.089c0.069,0.256,0.139,0.51,0.208,0.766c1.125-0.181,2.215-0.5,3.275-0.917
		c0.052,0.173,0.102,0.345,0.153,0.516c-1.04,0.509-2.113,0.896-3.226,1.139C47.809,55.039,47.88,55.299,47.951,55.561z"/>
	<radialGradient id="SVGID_5_" cx="36.9411" cy="100.0804" r="35.2173" gradientUnits="userSpaceOnUse">
		<stop  offset="0" style="stop-color:#DBCBB3"/>
		<stop  offset="1" style="stop-color:#C2A578"/>
	</radialGradient>
	<path class="st4" d="M4.23,86.037c0.29-0.508,0.939-0.684,1.448-0.394c0.507,0.292,0.684,0.94,0.394,1.449
		c-0.292,0.508-0.939,0.685-1.448,0.394C4.116,87.195,3.939,86.546,4.23,86.037L4.23,86.037z M7.176,88.579
		c0.291-0.509,0.94-0.685,1.448-0.395c0.509,0.291,0.685,0.94,0.394,1.448c-0.291,0.508-0.939,0.685-1.448,0.394
		C7.061,89.735,6.885,89.087,7.176,88.579L7.176,88.579z M10.122,91.119c0.291-0.509,0.939-0.685,1.448-0.394
		c0.509,0.291,0.685,0.94,0.394,1.448c-0.291,0.509-0.939,0.685-1.448,0.394C10.008,92.276,9.831,91.627,10.122,91.119
		L10.122,91.119z M4.501,82.744c0.291-0.508,0.939-0.684,1.449-0.393c0.508,0.29,0.684,0.939,0.394,1.448
		c-0.292,0.509-0.94,0.685-1.449,0.394C4.387,83.902,4.21,83.253,4.501,82.744L4.501,82.744z M7.447,85.285
		c0.291-0.508,0.939-0.684,1.448-0.395c0.509,0.292,0.685,0.94,0.394,1.449c-0.291,0.508-0.939,0.684-1.447,0.393
		C7.333,86.441,7.157,85.794,7.447,85.285L7.447,85.285z M10.393,87.826c0.291-0.509,0.94-0.684,1.448-0.394
		c0.508,0.291,0.685,0.94,0.394,1.448c-0.291,0.508-0.939,0.685-1.448,0.394C10.278,88.983,10.101,88.335,10.393,87.826
		L10.393,87.826z M13.339,90.367c0.291-0.509,0.94-0.685,1.447-0.394c0.509,0.291,0.685,0.938,0.393,1.448
		c-0.29,0.508-0.938,0.684-1.447,0.393C13.223,91.523,13.048,90.875,13.339,90.367L13.339,90.367z M8.531,77.369
		c-1.496,0.05-2.214,0.43-1.228,1.536c3.9,3.713,7.802,7.427,11.704,11.141c0.353,0.357,0.83-0.012,0.467-0.428
		C16.373,85.306,12.883,81.158,8.531,77.369L8.531,77.369z M15.207,72.231c3.555,4.532,6.205,9.27,8.442,14.1
		c0.28,0.478-0.253,0.761-0.532,0.343c-3.128-4.378-6.257-8.757-9.386-13.135C12.971,72.265,13.742,72.014,15.207,72.231
		L15.207,72.231z M17.555,69.375l4.756-2.552c0.608-0.326,1.374-0.091,1.697,0.511l7.712,14.369c0.327,0.608,0.097,1.37-0.511,1.697
		l-4.756,2.552c-0.603,0.324-1.371,0.096-1.698-0.512l-7.711-14.37C16.717,70.462,16.948,69.701,17.555,69.375L17.555,69.375z
		 M29.703,81.572c0.184,0.342-0.984,0.696-1.721,1.092c0.256,0.476,0.602,0.949,0.529,1.383c1.395-0.75,2.984-1.267,2.586-2.009
		l-7.711-14.369c-0.399-0.74-1.785,0.337-3.104,1.044c0.475,0.214,1.112,1.679,1.488,2.376c0.732-0.395,1.743-1.049,1.927-0.707
		c0.913,1.701,1.471,0.862-1.102,2.246l0.901,1.678c0.734-0.394,1.744-1.05,1.928-0.707c0.913,1.699,1.471,0.862-1.102,2.245
		l1.165,2.172c0.733-0.395,1.743-1.05,1.927-0.707c0.914,1.7,1.471,0.862-1.102,2.245l0.845,1.573
		C29.728,79.744,28.79,79.87,29.703,81.572L29.703,81.572z M0.218,84.111c-0.325,0.375-0.281,0.944,0.093,1.268l0.922,0.796
		c0.077,0.191,0.196,0.44,0.357,0.75c0.965,1.643,2.18,3.087,3.636,4.335c1.453,1.247,3.147,2.303,5.066,3.175
		c0.355,0.138,0.654,0.246,0.898,0.327l1.471,1.268c0.375,0.323,0.946,0.281,1.269-0.093l3.526-4.088
		c0.323-0.374,0.28-0.946-0.094-1.268L5.012,79.929c-0.375-0.323-0.946-0.281-1.269,0.094L0.218,84.111L0.218,84.111z M9.392,93.21
		l-6.574-5.669C4.263,90.224,6.568,92.103,9.392,93.21L9.392,93.21z M11.519,74.307c-1.52-0.11-2.272,0.206-1.333,1.453
		c3.75,4.249,7.5,8.498,11.25,12.748c0.337,0.406,0.843,0.076,0.497-0.393C19.032,83.335,15.723,78.681,11.519,74.307L11.519,74.307
		z M51.044,102.529c-6.272-18.597-11.011-26.71-21.979-27.896c0.464,1.305,1.437,3.3,4.572,3.143
		c8.917,4.262,15.722,27.812,4.988,28.579c-0.587,0.042-0.143-9.234-6.746-9.485c-2.322-0.088-6.929,1.871-6.324,6.397
		c0.716,5.366,8.314,7.113,7.512,7.807c-3.361,2.903-21.837,2.617-25.809-13.693c1.335-2.731-1.53-4.242-2.373-5.115
		c0.777,28.961,43.688,46.579,68.997,39.751c-7.963-2.77-11.812-4.109-15.915-7.506c0,0,4.202,1.678,7.773,0.456
		C57.225,119.616,53.038,108.447,51.044,102.529z"/>
</g>
<g>
	<path class="st5" d="M183.346,107.718v-0.002c34.123,0,21.522,14.918,35.185,25.229c-13.666,10.313-1.057,25.228-35.185,25.228
		c-37.635,0-75.271,0-112.905,0c-34.128,0-21.52-14.915-35.186-25.228c13.664-10.31,1.064-25.229,35.186-25.229L183.346,107.718z"/>
	<path class="st6" d="M183.345,159.714c24.784,0,27.585-6.615,30.861-15.014c1.539-3.952,4.737-8.077,9.365-11.342
		c0.375-0.263,0.347-0.59-0.01-0.835c-4.62-3.264-7.817-7.385-9.355-11.334c-3.095-7.936-5.936-15.219-30.861-15.011v-0.003
		c-9.395,0-112.904-0.003-112.904,0.003c-24.925-0.208-27.766,7.075-30.86,15.011c-1.538,3.949-4.735,8.069-9.356,11.334
		c-0.357,0.245-0.385,0.572-0.011,0.835c4.63,3.265,7.827,7.39,9.367,11.342c3.276,8.4,6.077,15.014,30.86,15.014H183.345
		L183.345,159.714z M183.345,107.718v-0.002c34.124,0,21.523,14.918,35.186,25.229c-13.666,10.313-1.057,25.228-35.186,25.228
		c-37.634,0-75.27,0-112.904,0c-34.128,0-21.52-14.915-35.186-25.228c13.664-10.31,1.064-25.229,35.186-25.229L183.345,107.718z"/>
	<g>
		<g>
			<path class="st6" d="M37.86,132.944c1.915-0.786,3.347-1.976,4.295-3.569c0.947,1.593,2.379,2.783,4.296,3.569
				c-1.916,0.788-3.349,1.976-4.296,3.57C41.207,134.92,39.776,133.732,37.86,132.944z"/>
			<path class="st6" d="M21.953,132.944c1.419-0.582,2.478-1.462,3.179-2.641c0.699,1.179,1.76,2.059,3.178,2.641
				c-1.419,0.582-2.479,1.462-3.178,2.642C24.431,134.407,23.371,133.527,21.953,132.944z"/>
			<path class="st6" d="M14.672,132.944c1.169-0.479,2.043-1.206,2.619-2.177c0.577,0.971,1.452,1.699,2.62,2.177
				c-1.169,0.48-2.044,1.206-2.62,2.177C16.715,134.15,15.841,133.425,14.672,132.944z"/>
			<path class="st6" d="M7.781,132.944c0.92-0.377,1.606-0.948,2.062-1.713c0.453,0.765,1.141,1.336,2.06,1.713
				c-0.919,0.378-1.607,0.948-2.06,1.713C9.387,133.893,8.7,133.322,7.781,132.944z"/>
			<path class="st6" d="M1.241,132.944c0.671-0.275,1.172-0.691,1.503-1.249c0.331,0.559,0.832,0.975,1.502,1.249
				c-0.67,0.276-1.172,0.693-1.502,1.249C2.412,133.637,1.912,133.22,1.241,132.944z"/>
		</g>
		<g>
			<path class="st6" d="M215.929,132.944c-1.917-0.786-3.349-1.976-4.297-3.569c-0.947,1.593-2.379,2.783-4.295,3.569
				c1.915,0.788,3.348,1.976,4.295,3.57C212.58,134.92,214.012,133.732,215.929,132.944z"/>
			<path class="st6" d="M231.835,132.944c-1.418-0.582-2.478-1.462-3.178-2.641c-0.7,1.179-1.759,2.059-3.177,2.641
				c1.419,0.582,2.477,1.462,3.177,2.642C229.356,134.407,230.417,133.527,231.835,132.944z"/>
			<path class="st6" d="M239.117,132.944c-1.171-0.479-2.044-1.206-2.621-2.177c-0.578,0.971-1.452,1.699-2.62,2.177
				c1.169,0.48,2.043,1.206,2.62,2.177C237.073,134.15,237.946,133.425,239.117,132.944z"/>
			<path class="st6" d="M246.008,132.944c-0.919-0.377-1.607-0.948-2.062-1.713c-0.453,0.765-1.141,1.336-2.061,1.713
				c0.92,0.378,1.608,0.948,2.061,1.713C244.401,133.893,245.089,133.322,246.008,132.944z"/>
			<path class="st6" d="M252.545,132.944c-0.668-0.275-1.17-0.691-1.501-1.249c-0.332,0.559-0.832,0.975-1.503,1.249
				c0.671,0.276,1.172,0.693,1.503,1.249C251.376,133.637,251.878,133.22,252.545,132.944z"/>
		</g>
	</g>
</g>
</svg>